# xmcd
#
# Track frame offsets:
#	150
#	18825
#	36057
#	55225
#	84080
#	103537
#	118170
#	133427
#	152255
#	170822
#	201837
#	221475
#
# Disc length: 3206 seconds
#
# Revision: 0
# Processed by: cddbd v1.5.1PL0 Copyright (c) Steve Scherf et al.
# Submitted via: dBpowerAMP V4.0
#
DISCID=9d0c840c
DTITLE=Ben James - Second Life
DYEAR=1900
DGENRE=Blues
TTITLE0=Caledonia
TTITLE1=Messing With The Kid
TTITLE2=Summertime
TTITLE3=Stormy Monday Blues
TTITLE4=Hoochie Coochie Man
TTITLE5=The Wind Cries Mary
TTITLE6=Everybody's Crying Mercy
TTITLE7=Since I Fell For You
TTITLE8=Born Under A Bad Sign
TTITLE9=All Along The Watchtower
TTITLE10=Jazz Thing
TTITLE11=One Way Out
EXTD=
EXTT0=
EXTT1=
EXTT2=
EXTT3=
EXTT4=
EXTT5=
EXTT6=
EXTT7=
EXTT8=
EXTT9=
EXTT10=
EXTT11=
PLAYORDER=
